<svg xmlns="http://www.w3.org/2000/svg" xmlns:xlink="http://www.w3.org/1999/xlink" width="1080" zoomAndPan="magnify" viewBox="0 0 810 809.999993" height="1080" preserveAspectRatio="xMidYMid meet" version="1.2"><defs><clipPath id="427d8392f6"><path d="M 323.851562 279.035156 L 480.601562 279.035156 L 480.601562 501.785156 L 323.851562 501.785156 Z M 323.851562 279.035156 "/></clipPath><clipPath id="9a3048c889"><path d="M 325 280 L 480.601562 280 L 480.601562 384 L 325 384 Z M 325 280 "/></clipPath><clipPath id="116c9cc0c1"><path d="M 325 382 L 480.601562 382 L 480.601562 500 L 325 500 Z M 325 382 "/></clipPath></defs><g id="81175605ca"><g clip-rule="nonzero" clip-path="url(#427d8392f6)"><path style=" stroke:none;fill-rule:nonzero;fill:#c8c8c8;fill-opacity:1;" d="M 249.898438 405 L 249.898438 566.996094 L 559.675781 566.996094 L 559.675781 531.960938 C 559.675781 512.730469 559.800781 439.824219 559.96875 369.96875 L 560.21875 243.003906 L 249.898438 243.003906 Z M 551.398438 405.210938 L 551.3125 558.632812 L 257.714844 558.632812 L 257.964844 443.542969 C 258.132812 380.292969 258.257812 311.230469 258.257812 290.117188 L 258.257812 251.785156 L 551.523438 251.785156 Z M 551.398438 405.210938 "/></g><g clip-rule="nonzero" clip-path="url(#9a3048c889)"><path style=" stroke:none;fill-rule:nonzero;fill:#c8c8c8;fill-opacity:1;" d="M 367.789062 280.671875 C 352.488281 282.96875 337.523438 294.089844 330.582031 308.386719 C 326.695312 316.371094 325.148438 323.144531 325.148438 332.007812 C 325.148438 338.320312 325.941406 343.296875 327.90625 349.148438 C 333.132812 364.910156 343.835938 375.609375 359.929688 381.296875 C 363.648438 382.632812 369.042969 383.886719 370.925781 383.886719 L 371.96875 383.886719 L 371.96875 357.175781 L 386.519531 357.007812 C 394.503906 356.925781 418.957031 356.925781 440.90625 357.050781 L 480.789062 357.214844 L 480.539062 349.984375 C 480.371094 345.972656 480.246094 339.742188 480.246094 336.105469 L 480.246094 329.542969 L 371.96875 329.542969 L 371.96875 356.714844 L 370.839844 356.464844 C 366.160156 355.292969 359.429688 351.320312 356.417969 347.976562 C 350.148438 340.996094 348.851562 330.335938 353.242188 321.347656 C 355.917969 315.871094 362.480469 310.144531 368.625 307.886719 L 371.761719 306.757812 L 425.816406 306.925781 L 479.828125 307.050781 L 479.828125 296.472656 C 479.828125 290.621094 479.703125 284.601562 479.535156 283.011719 L 479.285156 280.210938 L 424.6875 280.253906 C 394.667969 280.292969 369.042969 280.460938 367.789062 280.671875 Z M 367.789062 280.671875 "/></g><g clip-rule="nonzero" clip-path="url(#116c9cc0c1)"><path style=" stroke:none;fill-rule:nonzero;fill:#c8c8c8;fill-opacity:1;" d="M 372.179688 396.261719 C 372.011719 403.746094 372.011719 409.976562 372.179688 410.140625 C 372.347656 410.308594 385.472656 410.558594 401.359375 410.683594 C 431.835938 410.976562 432.628906 411.019531 437.605469 412.984375 C 444.417969 415.660156 450.648438 422.976562 452.863281 430.917969 C 453.949219 434.847656 454.160156 442.875 453.28125 446.847656 C 450.6875 458.761719 442.078125 468.125 430.914062 471.21875 C 427.820312 472.097656 427.070312 472.097656 376.777344 472.097656 L 325.773438 472.097656 L 325.898438 485.894531 L 326.027344 499.6875 L 378.449219 499.6875 C 435.890625 499.6875 432.671875 499.8125 440.699219 497.140625 C 460.765625 490.492188 474.351562 475.527344 479.703125 454.203125 C 480.789062 450.066406 480.832031 449.105469 480.871094 440.742188 C 480.871094 433.511719 480.703125 431.085938 480.078125 428.203125 C 475.269531 406.128906 461.097656 390.367188 441.324219 384.976562 C 433.171875 382.757812 431.332031 382.632812 400.773438 382.632812 L 372.511719 382.632812 Z M 372.179688 396.261719 "/></g><path style=" stroke:none;fill-rule:nonzero;fill:#c8c8c8;fill-opacity:1;" d="M 375.648438 437.734375 L 325.148438 437.816406 L 325.148438 450.945312 C 325.148438 458.175781 325.023438 464.363281 324.898438 464.738281 C 324.644531 465.367188 329.285156 465.410156 375.480469 465.410156 L 426.273438 465.410156 L 426.398438 451.570312 C 426.484375 443.960938 426.441406 437.691406 426.316406 437.691406 C 426.191406 437.648438 403.40625 437.648438 375.648438 437.734375 Z M 375.648438 437.734375 "/></g></svg>